<svg width="24" height="21" viewBox="0 0 24 21" fill="none" xmlns="http://www.w3.org/2000/svg">
<path d="M11.5858 20.8951L11.5777 20.8916L11.552 20.8776C11.4018 20.795 11.2529 20.7102 11.1052 20.6232C9.32928 19.568 7.66965 18.3284 6.15383 16.9249C3.46933 14.4201 0.625 10.7031 0.625 6.12508C0.625 2.70908 3.49967 8.27764e-05 6.96933 8.27764e-05C7.93388 -0.00464155 8.88708 0.208147 9.75804 0.622622C10.629 1.0371 11.3953 1.6426 12 2.39408C12.6048 1.64244 13.3713 1.03685 14.2425 0.622368C15.1137 0.207886 16.0671 -0.00481723 17.0318 8.27764e-05C20.5003 8.27764e-05 23.375 2.70908 23.375 6.12508C23.375 10.7042 20.5307 14.4212 17.8462 16.9237C16.3304 18.3272 14.6707 19.5669 12.8948 20.6221C12.7471 20.7094 12.5982 20.7946 12.448 20.8776L12.4223 20.8916L12.4142 20.8962L12.4107 20.8974C12.2842 20.9644 12.1432 20.9995 12 20.9995C11.8568 20.9995 11.7158 20.9644 11.5893 20.8974L11.5858 20.8951Z" fill="white"/>
</svg>
